<svg viewBox="0 0 100 24" fill="none" xmlns="http://www.w3.org/2000/svg">
  <path d="M0 12C0 5.4 5.4 0 12 0H88C94.6 0 100 5.4 100 12C100 18.6 94.6 24 88 24H12C5.4 24 0 18.6 0 12Z" fill="#F05537"/>
  <path d="M14 6H18V18H14V6Z" fill="white"/>
  <path d="M20 6H28C30.2 6 32 7.8 32 10C32 12.2 30.2 14 28 14H24V18H20V6ZM24 10H28V10C28 9.4 27.6 9 27 9H24V10Z" fill="white"/>
  <path d="M33 6H37V18H33V6Z" fill="white"/>
  <path d="M38 6H42V15H46V18H38V6Z" fill="white"/>
  <path d="M47 6H51V18H47V6Z" fill="white"/>
  <path d="M52 6H56V9H60V6H64V18H60V12H56V18H52V6Z" fill="white"/>
  <path d="M65 6H73C75.2 6 77 7.8 77 10C77 11.7 75.8 13.2 74.2 13.8L77 18H72.6L70 14H69V18H65V6ZM69 10H73V10C73 9.4 72.6 9 72 9H69V10Z" fill="white"/>
  <path d="M78 6H82V18H78V6Z" fill="white"/>
  <path d="M83 6H87V15H91V18H83V6Z" fill="white"/>
  <path d="M92 6H96V18H92V6Z" fill="white"/>
</svg>

