<svg viewBox="0 0 80 24" fill="none" xmlns="http://www.w3.org/2000/svg">
  <path d="M0 0.5H3.4V17.3H11.2V20.5H0V0.5Z" fill="white"/>
  <path d="M12.4 0.5H15.8V20.5H12.4V0.5Z" fill="white"/>
  <path d="M27.9 0.5H31.3V20.5H28.2L19.5 7.1V20.5H16.1V0.5H19.5L27.9 13.6V0.5Z" fill="white"/>
  <path d="M42.4 0.5H32.9V20.5H42.4V17.3H36.3V11.8H41.8V8.6H36.3V3.7H42.4V0.5Z" fill="white"/>
  <path d="M54.7 0.5H58.1V20.5H54.7V12.1H48.1V20.5H44.7V0.5H48.1V8.9H54.7V0.5Z" fill="white"/>
  <path d="M59.5 0.5H62.9V17.3H70.7V20.5H59.5V0.5Z" fill="white"/>
  <path d="M71.9 0.5H75.3V17.3H83.1V20.5H71.9V0.5Z" fill="white"/>
</svg>

