<svg viewBox="0 0 80 24" fill="none" xmlns="http://www.w3.org/2000/svg">
  <path d="M0 12C0 5.4 5.4 0 12 0H68C74.6 0 80 5.4 80 12C80 18.6 74.6 24 68 24H12C5.4 24 0 18.6 0 12Z" fill="#0067C5"/>
  <path d="M16 6H20L24 18H20L19 15H17L16 18H12L16 6ZM18 9L17 13H19L18 9Z" fill="white"/>
  <path d="M25 6H29V15H33V18H25V6Z" fill="white"/>
  <path d="M34 6H38V18H34V6Z" fill="white"/>
  <path d="M39 6H43V15H47V18H39V6Z" fill="white"/>
  <path d="M48 6H52V18H48V6Z" fill="white"/>
  <path d="M53 6H57L61 12V6H65V18H61L57 12V18H53V6Z" fill="white"/>
</svg>

