<svg viewBox="0 0 91 34" fill="none" xmlns="http://www.w3.org/2000/svg">
  <path d="M14.05 8.112L7.024 4.72C5.942 4.142 4.642 4.142 3.56 4.72L1.05 6.02C0.35 6.37 0 7.122 0 7.922V13.252C0 14.052 0.35 14.802 1.05 15.152L3.56 16.452C4.642 17.032 5.942 17.032 7.024 16.452L14.05 13.062C14.75 12.712 15.1 11.962 15.1 11.162V10.012C15.1 9.212 14.75 8.462 14.05 8.112Z" fill="#A435F0"/>
  <path d="M28.872 0H25.475C24.666 0 24.0 0.666 24.0 1.475V22.6C24.0 23.409 24.666 24.075 25.475 24.075H28.872C29.681 24.075 30.347 23.409 30.347 22.6V1.475C30.347 0.666 29.681 0 28.872 0Z" fill="#A435F0"/>
  <path d="M14.05 20.088L7.024 23.48C5.942 24.058 4.642 24.058 3.56 23.48L1.05 22.18C0.35 21.83 0 21.08 0 20.28V14.95C0 14.15 0.35 13.4 1.05 13.05L3.56 11.75C4.642 11.17 5.942 11.17 7.024 11.75L14.05 15.14C14.75 15.49 15.1 16.24 15.1 17.04V18.19C15.1 18.99 14.75 19.738 14.05 20.088Z" fill="#A435F0"/>
  <path d="M41.504 7.877C41.504 7.877 40.184 7.877 39.334 7.877C38.484 7.877 37.944 8.417 37.944 9.267V22.607C37.944 22.607 37.944 23.927 37.944 24.777C37.944 25.627 38.484 26.167 39.334 26.167H41.504C41.504 26.167 42.824 26.167 43.674 26.167C44.524 26.167 45.064 25.627 45.064 24.777V9.267C45.064 9.267 45.064 7.947 45.064 7.097C45.064 6.247 44.524 5.707 43.674 5.707C42.824 5.707 41.504 5.707 41.504 5.707V7.877Z" fill="white"/>
  <path d="M54.274 15.957C51.954 15.957 50.094 17.817 50.094 20.137C50.094 22.457 51.954 24.317 54.274 24.317C56.594 24.317 58.454 22.457 58.454 20.137C58.454 17.817 56.594 15.957 54.274 15.957ZM54.274 21.877C53.314 21.877 52.534 21.097 52.534 20.137C52.534 19.177 53.314 18.397 54.274 18.397C55.234 18.397 56.014 19.177 56.014 20.137C56.014 21.097 55.234 21.877 54.274 21.877Z" fill="white"/>
  <path d="M69.374 16.227H67.484L64.774 19.207V9.267C64.774 8.417 64.234 7.877 63.384 7.877H61.214C60.364 7.877 59.824 8.417 59.824 9.267V24.777C59.824 25.627 60.364 26.167 61.214 26.167H63.384C64.234 26.167 64.774 25.627 64.774 24.777V22.347L65.824 21.207L67.754 26.167H70.184C71.034 26.167 71.574 25.627 71.574 24.777V24.507C71.574 24.237 71.484 23.967 71.304 23.787L68.864 19.477L71.304 16.767C71.484 16.587 71.574 16.317 71.574 16.047V15.777C71.574 14.927 71.034 14.387 70.184 14.387C69.914 14.387 69.644 14.477 69.374 14.657V16.227Z" fill="white"/>
  <path d="M82.424 16.227H79.994V12.147C79.994 11.297 79.454 10.757 78.604 10.757H76.434C75.584 10.757 75.044 11.297 75.044 12.147V16.227H73.784C72.934 16.227 72.394 16.767 72.394 17.617V19.247C72.394 20.097 72.934 20.637 73.784 20.637H75.044V24.777C75.044 25.627 75.584 26.167 76.434 26.167H78.604C79.454 26.167 79.994 25.627 79.994 24.777V20.637H82.424C83.274 20.637 83.814 20.097 83.814 19.247V17.617C83.814 16.767 83.274 16.227 82.424 16.227Z" fill="white"/>
  <path d="M90.923 16.227H88.843C87.993 16.227 87.453 16.767 87.453 17.617V24.777C87.453 25.627 87.993 26.167 88.843 26.167H90.923C91.773 26.167 92.313 25.627 92.313 24.777V17.617C92.313 16.767 91.773 16.227 90.923 16.227Z" fill="white"/>
  <path d="M89.883 9.447C88.563 9.447 87.513 10.497 87.513 11.817C87.513 13.137 88.563 14.187 89.883 14.187C91.203 14.187 92.253 13.137 92.253 11.817C92.253 10.497 91.203 9.447 89.883 9.447Z" fill="white"/>
</svg>

