<svg viewBox="0 0 36 36" fill="none" xmlns="http://www.w3.org/2000/svg">
  <circle cx="18" cy="18" r="18" fill="#151F6D"/>
  <path d="M18 3C9.7 3 3 9.7 3 18C3 26.3 9.7 33 18 33C26.3 33 33 26.3 33 18C33 9.7 26.3 3 18 3ZM27.4 23.7L24.1 13.5C23.9 12.9 23.4 12.5 22.8 12.5H13.2C12.6 12.5 12.1 12.9 11.9 13.5L8.6 23.7C8.4 24.3 8.8 24.9 9.4 25.1C10 25.3 10.6 24.9 10.8 24.3L11.6 21.9H24.4L25.2 24.3C25.4 24.9 26 25.3 26.6 25.1C27.2 24.9 27.6 24.3 27.4 23.7ZM12.4 19.5L13.8 14.9H22.2L23.6 19.5H12.4Z" fill="white"/>
</svg>

